<svg xmlns="http://www.w3.org/2000/svg" xmlns:xlink="http://www.w3.org/1999/xlink" width="801" height="537" version="1.1" viewBox="0 0 801 537"><title>umoci Logo on Dark</title><desc>Created with Sketch.</desc><g id="Page-1" fill="none" fill-rule="evenodd" stroke="none" stroke-width="1"><g id="umoci-Logo-on-Dark"><g id="Group-3" transform="translate(99.000000, 158.000000)"><text id="umoci" fill="#FFF" font-family="Campton-BoldDEMO, Campton" font-size="160" font-weight="bold" letter-spacing="-12"><tspan x="165" y="157">u</tspan> <tspan x="249.96" y="157" letter-spacing="-10">m</tspan> <tspan x="384.6" y="157" letter-spacing="-8">o</tspan> <tspan x="472.44" y="157" letter-spacing="-11">c</tspan> <tspan x="554.24" y="157">i</tspan></text><g id="Group-2" stroke="#FFF" transform="translate(0.000000, 62.000000)"><rect id="Rectangle" width="96" height="96" x="50" y="5" stroke-width="10" rx="18"/><g id="Group" stroke-width="8" transform="translate(20.000000, 25.000000)"><path id="Line" stroke-linecap="square" d="M16.6685393,8 L53.1067416,8"/><ellipse id="Oval" cx="7.365" cy="7.5" rx="7.365" ry="7.5"/><ellipse id="Oval-Copy" cx="61.635" cy="7.5" rx="7.365" ry="7.5"/></g><g id="Group-Copy-2" stroke-width="8" transform="translate(20.000000, 69.000000)"><path id="Line" stroke-linecap="square" d="M16.6685393,8 L53.1067416,8"/><ellipse id="Oval" cx="7.365" cy="7.5" rx="7.365" ry="7.5"/><ellipse id="Oval-Copy" cx="61.635" cy="7.5" rx="7.365" ry="7.5"/></g><g id="Group-Copy" stroke-width="8" transform="translate(0.000000, 47.000000)"><path id="Line" stroke-linecap="square" d="M16.9437086,8 L100.086093,8"/><ellipse id="Oval" cx="7.487" cy="7.5" rx="7.487" ry="7.5"/><ellipse id="Oval-Copy" cx="111.513" cy="7.5" rx="7.487" ry="7.5"/></g></g></g></g></g></svg>